<?xml version="1.0" encoding="UTF-8"?>
<svg version="1.1" xmlns="http://www.w3.org/2000/svg" width="1280" height="1280">
<path d="M0 0 C3.6261989 0.01139354 7.25210408 0.00459334 10.87829304 -0.00687027 C36.10054966 -0.07458945 61.15271083 1.05342318 86.16503906 4.51074219 C86.95072266 4.61678772 87.73640625 4.72283325 88.54589844 4.83209229 C157.13692354 14.12274116 223.01637553 34.28341808 285.35253906 64.26074219 C286.86702637 64.98511475 286.86702637 64.98511475 288.41210938 65.72412109 C303.85523122 73.1482222 318.67394499 81.42965467 333.35253906 90.26074219 C334.61783447 91.01750244 334.61783447 91.01750244 335.90869141 91.78955078 C356.30917501 104.00518779 376.04907156 117.31542762 394.75341797 132.00878906 C396.40870562 133.30471503 398.07315431 134.58813387 399.73925781 135.87011719 C407.76907522 142.07574623 415.47995388 148.59108773 423.09057617 155.30224609 C424.80074066 156.78297351 426.53192462 158.23947148 428.27270508 159.68408203 C437.98886837 167.77766645 446.92880851 176.5625689 455.83227539 185.53466797 C458.30522644 188.02604272 460.78625431 190.50915462 463.26855469 192.99121094 C464.86863882 194.59620652 466.46826471 196.2016591 468.06738281 197.80761719 C468.79666489 198.53801208 469.52594696 199.26840698 470.27732849 200.02093506 C474.82781718 204.61319252 479.14805554 209.35071597 483.35253906 214.26074219 C484.30248444 215.35499202 485.25290664 216.44882837 486.20410156 217.54199219 C522.5556544 259.6376998 553.40428794 305.51217167 578.35253906 355.26074219 C579.03195557 356.61353271 579.03195557 356.61353271 579.72509766 357.99365234 C612.52822249 423.80042454 632.43544117 495.21539711 641.09539795 568.11425781 C641.3403391 570.15890305 641.59566874 572.20200369 641.85302734 574.24511719 C647.22901151 618.54278193 646.80522986 666.00491137 641.35253906 710.26074219 C641.20800293 711.52096191 641.0634668 712.78118164 640.91455078 714.07958984 C636.24352097 754.60840328 627.64836984 794.3666773 615.35253906 833.26074219 C614.9790332 834.44700195 614.60552734 835.63326172 614.22070312 836.85546875 C605.22928134 865.17732437 594.26886195 892.4865784 581.35253906 919.26074219 C580.82515137 920.35402832 580.29776367 921.44731445 579.75439453 922.57373047 C560.19423664 962.87576904 536.14318604 1001.68814532 507.81396484 1036.44775391 C505.87851606 1038.84879679 503.99436449 1041.2877636 502.1081543 1043.72753906 C497.65141834 1049.4838608 493.03668186 1054.97414972 488.03222656 1060.27246094 C486.50658024 1061.91867053 485.09511141 1063.5913642 483.71508789 1065.36376953 C476.49687869 1074.59144684 468.18061948 1082.69928521 459.87768555 1090.94140625 C457.28731885 1093.51344315 454.70511743 1096.09346579 452.12402344 1098.67480469 C450.45978167 1100.33413216 448.79508369 1101.99300222 447.12988281 1103.65136719 C446.36820297 1104.4119342 445.60652313 1105.17250122 444.82176208 1105.95611572 C440.15304673 1110.58409208 435.34967307 1114.99038595 430.35253906 1119.26074219 C429.21167536 1120.24614298 428.07101244 1121.23177633 426.93066406 1122.21777344 C410.35818328 1136.45641308 393.41374482 1149.92313841 375.63574219 1162.62597656 C373.43711192 1164.20018831 371.24595021 1165.78432583 369.05566406 1167.37011719 C359.11725739 1174.52558569 348.87925406 1181.00962949 338.35253906 1187.26074219 C336.9721257 1188.08982799 335.59191304 1188.91924808 334.21191406 1189.74902344 C286.09522293 1218.5295827 235.15322605 1240.55618152 181.35253906 1256.26074219 C180.27617188 1256.57495117 179.19980469 1256.88916016 178.09082031 1257.21289062 C149.6431304 1265.40953437 120.62847152 1271.00884854 91.35253906 1275.26074219 C90.29276855 1275.41526855 89.23299805 1275.56979492 88.14111328 1275.72900391 C61.7400971 1279.49573531 35.33279316 1280.605843 8.70507812 1280.52148438 C5.07887923 1280.51009083 1.45297405 1280.51689103 -2.17321491 1280.52835464 C-27.39547154 1280.59607382 -52.4476327 1279.4680612 -77.45996094 1276.01074219 C-78.24564453 1275.90469666 -79.03132812 1275.79865112 -79.84082031 1275.68939209 C-147.5547246 1266.51754916 -213.0722641 1246.86949191 -274.64746094 1217.26074219 C-275.75541016 1216.72868164 -276.86335938 1216.19662109 -278.00488281 1215.6484375 C-301.45728873 1204.31463397 -323.80021208 1191.42520418 -345.64746094 1177.26074219 C-346.71738281 1176.56722656 -347.78730469 1175.87371094 -348.88964844 1175.15917969 C-351.83039549 1173.22259016 -354.74416629 1171.25305408 -357.64746094 1169.26074219 C-358.26234375 1168.83889648 -358.87722656 1168.41705078 -359.51074219 1167.98242188 C-370.88314641 1160.14871236 -381.81922887 1151.82673146 -392.64746094 1143.26074219 C-393.59234375 1142.52082031 -394.53722656 1141.78089844 -395.51074219 1141.01855469 C-405.67349421 1133.00145735 -415.43373674 1124.47852992 -424.95214844 1115.70996094 C-427.05609685 1113.79811216 -429.18324709 1111.9332711 -431.33569336 1110.07739258 C-435.48808072 1106.44672163 -439.42844458 1102.64106956 -443.33105469 1098.74511719 C-444.38076195 1097.70040253 -444.38076195 1097.70040253 -445.45167542 1096.63458252 C-446.92099164 1095.17029305 -448.38898876 1093.70467883 -449.85571289 1092.23779297 C-452.07059873 1090.02509024 -454.29336399 1087.82051793 -456.51660156 1085.61621094 C-463.34085667 1078.81836971 -469.93308824 1072.04243419 -475.8996582 1064.46972656 C-478.09301149 1061.69762703 -480.45037022 1059.18545284 -482.89746094 1056.63574219 C-489.1761953 1049.94156939 -494.59342714 1042.62866103 -500.09814453 1035.29785156 C-501.91004078 1032.91549066 -503.77827241 1030.58405123 -505.65795898 1028.25512695 C-526.03656285 1002.90892792 -543.19552248 974.81163199 -558.64746094 946.26074219 C-559.09782715 945.43445313 -559.54819336 944.60816406 -560.01220703 943.75683594 C-562.97779583 938.30151865 -565.846081 932.8021048 -568.64746094 927.26074219 C-569.13537109 926.29571777 -569.62328125 925.33069336 -570.12597656 924.33642578 C-611.07823435 842.69965536 -635.28873296 749.19990832 -635.96551895 642.50209808 C-635.95986557 640.22228423 -635.95705345 637.94247786 -635.95443726 635.66265869 C-635.91732512 613.40619777 -635.4687937 591.36347592 -632.64746094 569.26074219 C-632.47363809 567.84185596 -632.30031136 566.42290889 -632.12744141 565.00390625 C-622.80776305 489.46815318 -600.59977571 417.33644148 -566.64746094 349.26074219 C-566.1734082 348.3086084 -565.69935547 347.35647461 -565.2109375 346.37548828 C-552.57576684 321.18359761 -537.56543408 297.47301638 -521.64746094 274.26074219 C-521.05916504 273.40174316 -520.47086914 272.54274414 -519.86474609 271.65771484 C-513.15071581 261.89640894 -506.08200668 252.48255769 -498.64746094 243.26074219 C-498.11975098 242.60154785 -497.59204102 241.94235352 -497.04833984 241.26318359 C-490.46858429 233.04476938 -483.76359489 225.02379741 -476.64746094 217.26074219 C-475.4764562 215.93121716 -474.30961265 214.59801265 -473.14746094 213.26074219 C-471.98127782 211.92698591 -470.81454735 210.59370813 -469.64746094 209.26074219 C-469.07495605 208.60211182 -468.50245117 207.94348145 -467.91259766 207.26489258 C-461.06594294 199.51529797 -453.78387457 192.21103794 -446.47363281 184.90161133 C-444.27867511 182.70446257 -442.09186279 180.4994184 -439.90527344 178.29394531 C-432.45136475 170.81084701 -424.94819731 163.80107995 -416.64746094 157.26074219 C-414.8317423 155.67602212 -413.08779185 154.04135727 -411.33496094 152.38574219 C-405.6724159 147.18707796 -399.71134662 142.48020306 -393.62646484 137.79394531 C-391.51190461 136.15572199 -389.41283715 134.4989863 -387.31542969 132.83886719 C-378.28417115 125.71088232 -369.11240842 118.92333072 -359.54589844 112.53125 C-357.70878642 111.30178357 -355.88042375 110.06027839 -354.05371094 108.81542969 C-278.99920901 57.89401034 -192.89661431 23.61263693 -82.64746094 5.26074219 C-81.58769043 5.10621582 -80.52791992 4.95168945 -79.43603516 4.79248047 C-53.03501898 1.02574906 -26.62771504 -0.08435863 0 0 Z " fill="#FEFEFE" transform="translate(635.6474609375,-0.2607421875)"/>
<path d="M0 0 C3.6261989 0.01139354 7.25210408 0.00459334 10.87829304 -0.00687027 C36.10054966 -0.07458945 61.15271083 1.05342318 86.16503906 4.51074219 C86.95072266 4.61678772 87.73640625 4.72283325 88.54589844 4.83209229 C157.13692354 14.12274116 223.01637553 34.28341808 285.35253906 64.26074219 C286.86702637 64.98511475 286.86702637 64.98511475 288.41210938 65.72412109 C303.85523122 73.1482222 318.67394499 81.42965467 333.35253906 90.26074219 C334.61783447 91.01750244 334.61783447 91.01750244 335.90869141 91.78955078 C356.30917501 104.00518779 376.04907156 117.31542762 394.75341797 132.00878906 C396.40870562 133.30471503 398.07315431 134.58813387 399.73925781 135.87011719 C407.76907522 142.07574623 415.47995388 148.59108773 423.09057617 155.30224609 C424.80074066 156.78297351 426.53192462 158.23947148 428.27270508 159.68408203 C437.98886837 167.77766645 446.92880851 176.5625689 455.83227539 185.53466797 C458.30522644 188.02604272 460.78625431 190.50915462 463.26855469 192.99121094 C464.86863882 194.59620652 466.46826471 196.2016591 468.06738281 197.80761719 C468.79666489 198.53801208 469.52594696 199.26840698 470.27732849 200.02093506 C474.82781718 204.61319252 479.14805554 209.35071597 483.35253906 214.26074219 C484.30248444 215.35499202 485.25290664 216.44882837 486.20410156 217.54199219 C522.5556544 259.6376998 553.40428794 305.51217167 578.35253906 355.26074219 C579.03195557 356.61353271 579.03195557 356.61353271 579.72509766 357.99365234 C612.52822249 423.80042454 632.43544117 495.21539711 641.09539795 568.11425781 C641.3403391 570.15890305 641.59566874 572.20200369 641.85302734 574.24511719 C647.22901151 618.54278193 646.80522986 666.00491137 641.35253906 710.26074219 C641.20800293 711.52096191 641.0634668 712.78118164 640.91455078 714.07958984 C636.24352097 754.60840328 627.64836984 794.3666773 615.35253906 833.26074219 C614.9790332 834.44700195 614.60552734 835.63326172 614.22070312 836.85546875 C605.22928134 865.17732437 594.26886195 892.4865784 581.35253906 919.26074219 C580.82515137 920.35402832 580.29776367 921.44731445 579.75439453 922.57373047 C560.19423664 962.87576904 536.14318604 1001.68814532 507.81396484 1036.44775391 C505.87851606 1038.84879679 503.99436449 1041.2877636 502.1081543 1043.72753906 C497.65141834 1049.4838608 493.03668186 1054.97414972 488.03222656 1060.27246094 C486.50658024 1061.91867053 485.09511141 1063.5913642 483.71508789 1065.36376953 C476.49687869 1074.59144684 468.18061948 1082.69928521 459.87768555 1090.94140625 C457.28731885 1093.51344315 454.70511743 1096.09346579 452.12402344 1098.67480469 C450.45978167 1100.33413216 448.79508369 1101.99300222 447.12988281 1103.65136719 C446.36820297 1104.4119342 445.60652313 1105.17250122 444.82176208 1105.95611572 C440.15304673 1110.58409208 435.34967307 1114.99038595 430.35253906 1119.26074219 C429.21167536 1120.24614298 428.07101244 1121.23177633 426.93066406 1122.21777344 C410.35818328 1136.45641308 393.41374482 1149.92313841 375.63574219 1162.62597656 C373.43711192 1164.20018831 371.24595021 1165.78432583 369.05566406 1167.37011719 C359.11725739 1174.52558569 348.87925406 1181.00962949 338.35253906 1187.26074219 C336.9721257 1188.08982799 335.59191304 1188.91924808 334.21191406 1189.74902344 C286.09522293 1218.5295827 235.15322605 1240.55618152 181.35253906 1256.26074219 C180.27617188 1256.57495117 179.19980469 1256.88916016 178.09082031 1257.21289062 C149.6431304 1265.40953437 120.62847152 1271.00884854 91.35253906 1275.26074219 C90.29276855 1275.41526855 89.23299805 1275.56979492 88.14111328 1275.72900391 C61.7400971 1279.49573531 35.33279316 1280.605843 8.70507812 1280.52148438 C5.07887923 1280.51009083 1.45297405 1280.51689103 -2.17321491 1280.52835464 C-27.39547154 1280.59607382 -52.4476327 1279.4680612 -77.45996094 1276.01074219 C-78.24564453 1275.90469666 -79.03132812 1275.79865112 -79.84082031 1275.68939209 C-147.5547246 1266.51754916 -213.0722641 1246.86949191 -274.64746094 1217.26074219 C-275.75541016 1216.72868164 -276.86335938 1216.19662109 -278.00488281 1215.6484375 C-301.45728873 1204.31463397 -323.80021208 1191.42520418 -345.64746094 1177.26074219 C-346.71738281 1176.56722656 -347.78730469 1175.87371094 -348.88964844 1175.15917969 C-351.83039549 1173.22259016 -354.74416629 1171.25305408 -357.64746094 1169.26074219 C-358.26234375 1168.83889648 -358.87722656 1168.41705078 -359.51074219 1167.98242188 C-370.88314641 1160.14871236 -381.81922887 1151.82673146 -392.64746094 1143.26074219 C-393.59234375 1142.52082031 -394.53722656 1141.78089844 -395.51074219 1141.01855469 C-405.67349421 1133.00145735 -415.43373674 1124.47852992 -424.95214844 1115.70996094 C-427.05609685 1113.79811216 -429.18324709 1111.9332711 -431.33569336 1110.07739258 C-435.48808072 1106.44672163 -439.42844458 1102.64106956 -443.33105469 1098.74511719 C-444.38076195 1097.70040253 -444.38076195 1097.70040253 -445.45167542 1096.63458252 C-446.92099164 1095.17029305 -448.38898876 1093.70467883 -449.85571289 1092.23779297 C-452.07059873 1090.02509024 -454.29336399 1087.82051793 -456.51660156 1085.61621094 C-463.34085667 1078.81836971 -469.93308824 1072.04243419 -475.8996582 1064.46972656 C-478.09301149 1061.69762703 -480.45037022 1059.18545284 -482.89746094 1056.63574219 C-489.1761953 1049.94156939 -494.59342714 1042.62866103 -500.09814453 1035.29785156 C-501.91004078 1032.91549066 -503.77827241 1030.58405123 -505.65795898 1028.25512695 C-526.03656285 1002.90892792 -543.19552248 974.81163199 -558.64746094 946.26074219 C-559.09782715 945.43445313 -559.54819336 944.60816406 -560.01220703 943.75683594 C-562.97779583 938.30151865 -565.846081 932.8021048 -568.64746094 927.26074219 C-569.13537109 926.29571777 -569.62328125 925.33069336 -570.12597656 924.33642578 C-611.07823435 842.69965536 -635.28873296 749.19990832 -635.96551895 642.50209808 C-635.95986557 640.22228423 -635.95705345 637.94247786 -635.95443726 635.66265869 C-635.91732512 613.40619777 -635.4687937 591.36347592 -632.64746094 569.26074219 C-632.47363809 567.84185596 -632.30031136 566.42290889 -632.12744141 565.00390625 C-622.80776305 489.46815318 -600.59977571 417.33644148 -566.64746094 349.26074219 C-566.1734082 348.3086084 -565.69935547 347.35647461 -565.2109375 346.37548828 C-552.57576684 321.18359761 -537.56543408 297.47301638 -521.64746094 274.26074219 C-521.05916504 273.40174316 -520.47086914 272.54274414 -519.86474609 271.65771484 C-513.15071581 261.89640894 -506.08200668 252.48255769 -498.64746094 243.26074219 C-498.11975098 242.60154785 -497.59204102 241.94235352 -497.04833984 241.26318359 C-490.46858429 233.04476938 -483.76359489 225.02379741 -476.64746094 217.26074219 C-475.4764562 215.93121716 -474.30961265 214.59801265 -473.14746094 213.26074219 C-471.98127782 211.92698591 -470.81454735 210.59370813 -469.64746094 209.26074219 C-469.07495605 208.60211182 -468.50245117 207.94348145 -467.91259766 207.26489258 C-461.06594294 199.51529797 -453.78387457 192.21103794 -446.47363281 184.90161133 C-444.27867511 182.70446257 -442.09186279 180.4994184 -439.90527344 178.29394531 C-432.45136475 170.81084701 -424.94819731 163.80107995 -416.64746094 157.26074219 C-414.8317423 155.67602212 -413.08779185 154.04135727 -411.33496094 152.38574219 C-405.6724159 147.18707796 -399.71134662 142.48020306 -393.62646484 137.79394531 C-391.51190461 136.15572199 -389.41283715 134.4989863 -387.31542969 132.83886719 C-378.28417115 125.71088232 -369.11240842 118.92333072 -359.54589844 112.53125 C-357.70878642 111.30178357 -355.88042375 110.06027839 -354.05371094 108.81542969 C-278.99920901 57.89401034 -192.89661431 23.61263693 -82.64746094 5.26074219 C-81.58769043 5.10621582 -80.52791992 4.95168945 -79.43603516 4.79248047 C-53.03501898 1.02574906 -26.62771504 -0.08435863 0 0 Z M-54.08496094 180.44824219 C-54.94265076 180.55645294 -55.80034058 180.6646637 -56.684021 180.77615356 C-90.3978727 185.06776485 -123.92362211 192.91776362 -155.64746094 205.26074219 C-156.53336914 205.60403564 -157.41927734 205.9473291 -158.33203125 206.30102539 C-205.59927645 224.78630893 -249.78071269 249.34295413 -288.91210938 281.82958984 C-290.44906459 283.09712381 -292.0040426 284.34273426 -293.56152344 285.58496094 C-305.28036621 294.93583695 -315.94164052 305.46417616 -326.5743103 316.01235962 C-327.97858795 317.40474087 -329.3868154 318.79313505 -330.79516602 320.18139648 C-336.06553198 325.44506141 -340.9254745 330.8737337 -345.57641602 336.69140625 C-347.43821674 339.00115408 -349.35272919 341.23521988 -351.32324219 343.45214844 C-354.66890547 347.24043614 -357.77964109 351.17355616 -360.83496094 355.19824219 C-361.39248047 355.93204102 -361.95 356.66583984 -362.52441406 357.421875 C-377.58420014 377.35694776 -390.83422045 398.24596938 -402.64746094 420.26074219 C-403.11506836 421.1236084 -403.58267578 421.98647461 -404.06445312 422.87548828 C-421.93698235 455.94025643 -435.46286607 490.81174038 -444.64746094 527.26074219 C-444.99647461 528.62634277 -444.99647461 528.62634277 -445.35253906 530.01953125 C-449.2006363 545.27487972 -451.5602887 560.67833575 -453.64746094 576.26074219 C-453.86813232 577.87625977 -453.86813232 577.87625977 -454.09326172 579.52441406 C-454.5168345 582.64366707 -454.92880927 585.76417649 -455.33496094 588.88574219 C-455.45436035 589.78341309 -455.57375977 590.68108398 -455.69677734 591.60595703 C-457.57537289 606.60481608 -457.85263226 621.66425762 -457.83496094 636.76074219 C-457.83468903 637.6438205 -457.83441711 638.5268988 -457.83413696 639.43673706 C-457.78627033 673.59474667 -454.96966535 706.86970521 -447.33789062 740.22607422 C-446.76757245 742.73281215 -446.21877895 745.24184052 -445.68652344 747.75683594 C-430.3005211 817.84078238 -395.32210123 885.48914853 -348.63305664 939.77246094 C-346.72600921 941.99427932 -344.83391342 944.22718648 -342.95654297 946.47412109 C-336.20606673 954.51449295 -329.10843293 962.08621611 -321.64599609 969.46801758 C-319.87885384 971.21665443 -318.12009478 972.97341209 -316.36230469 974.73144531 C-310.62580148 980.45018923 -304.8454345 986.03804328 -298.64746094 991.26074219 C-297.62576977 992.14907945 -296.6048932 993.03835476 -295.58496094 993.92871094 C-287.22126783 1001.10235729 -278.55434126 1007.77636625 -269.64746094 1014.26074219 C-268.9666748 1014.75719238 -268.28588867 1015.25364258 -267.58447266 1015.76513672 C-257.2628152 1023.25693772 -246.65917897 1030.22996947 -235.79931641 1036.91650391 C-234.33732941 1037.82978963 -232.88864541 1038.76464972 -231.45263672 1039.71826172 C-230.4063208 1040.40637939 -230.4063208 1040.40637939 -229.33886719 1041.10839844 C-228.72342041 1041.52226807 -228.10797363 1041.9361377 -227.47387695 1042.36254883 C-225.38844271 1043.55494368 -225.38844271 1043.55494368 -221.64746094 1043.26074219 C-221.64746094 1043.92074219 -221.64746094 1044.58074219 -221.64746094 1045.26074219 C-217.60292567 1048.29414364 -213.49551084 1049.1925278 -208.64746094 1050.26074219 C-208.64746094 1050.92074219 -208.64746094 1051.58074219 -208.64746094 1052.26074219 C-206.85858503 1053.18284317 -205.06616823 1054.098075 -203.27246094 1055.01074219 C-202.27472656 1055.52121094 -201.27699219 1056.03167969 -200.24902344 1056.55761719 C-196.71206992 1058.23018957 -193.14556003 1059.68135547 -189.50732422 1061.11376953 C-183.88456886 1063.36882371 -178.33529022 1065.80005798 -172.77246094 1068.19824219 C-169.20467068 1069.73474991 -165.63620201 1071.26950761 -162.06469727 1072.79736328 C-159.84806211 1073.7466032 -157.6341676 1074.70227872 -155.42358398 1075.66552734 C-149.42005856 1078.24344718 -143.56621963 1080.27017816 -137.20996094 1081.76074219 C-131.61152116 1083.14308664 -126.29941382 1084.66761126 -120.95996094 1086.88574219 C-115.17101135 1089.21871061 -109.43284067 1090.4235694 -103.29980469 1091.45214844 C-99.87711403 1092.02720833 -96.48475224 1092.69649125 -93.08886719 1093.41308594 C-81.84209828 1095.78298974 -70.5927367 1097.84257453 -59.20996094 1099.44824219 C-57.60858276 1099.68015259 -57.60858276 1099.68015259 -55.97485352 1099.91674805 C-34.89462303 1102.76760416 -13.77557007 1103.59257954 7.4777832 1103.52148438 C11.31184437 1103.51068074 15.14544427 1103.52150273 18.97949219 1103.53417969 C50.28099185 1103.5520605 81.18502121 1099.11668948 111.47753906 1091.20214844 C116.35530651 1090.01712631 121.26260458 1089.11170411 126.21508789 1088.29956055 C129.55889657 1087.72463607 131.47425162 1087.17960048 134.35253906 1085.26074219 C136.18676758 1084.63818359 136.18676758 1084.63818359 138.23144531 1084.11230469 C138.98876953 1083.91121094 139.74609375 1083.71011719 140.52636719 1083.50292969 C142.09129048 1083.09858319 143.65638851 1082.69491219 145.22167969 1082.29199219 C150.20640191 1080.96720479 154.91749733 1079.31853321 159.68383789 1077.35009766 C162.53492577 1076.18629251 165.4086326 1075.10240258 168.29394531 1074.02636719 C236.9084455 1048.11239182 303.72261902 1005.69619367 351.35253906 949.26074219 C352.26277312 948.21280253 353.17435894 947.16603626 354.08691406 946.12011719 C360.81408847 938.38679714 367.24404069 930.49326156 373.35253906 922.26074219 C373.84334961 921.60122559 374.33416016 920.94170898 374.83984375 920.26220703 C388.3355074 902.05357174 400.46559378 883.13953764 411.35253906 863.26074219 C411.84608887 862.3601709 412.33963867 861.45959961 412.84814453 860.53173828 C441.89081535 807.12460102 460.38332013 747.78408858 466.35253906 687.26074219 C466.45695312 686.2565625 466.56136719 685.25238281 466.66894531 684.21777344 C469.9686278 651.59686175 469.20941232 618.77840858 465.35253906 586.26074219 C465.12024184 584.10729281 464.88969235 581.95365398 464.66113281 579.79980469 C463.11224136 565.75106784 460.58239552 552.01670697 457.35253906 538.26074219 C457.07812988 537.09188477 456.8037207 535.92302734 456.52099609 534.71875 C449.05225344 503.43177829 438.92829104 473.4299267 425.35253906 444.26074219 C424.86172852 443.2059668 424.37091797 442.15119141 423.86523438 441.06445312 C416.55834376 425.55524386 408.05209397 410.82422972 399.14160156 396.19824219 C397.6167822 393.69460865 396.10670425 391.18305031 394.60253906 388.66699219 C385.02121987 372.80028134 373.57186011 358.22886566 361.76318359 343.97558594 C360.51530863 342.45861228 359.28961248 340.92345336 358.06738281 339.38574219 C346.28380103 324.58468246 332.74928465 310.2218578 318.32128906 297.95214844 C316.07472399 296.02206377 313.90670002 294.01656079 311.72753906 292.01074219 C306.20032142 287.03541012 300.40176615 282.45373391 294.51171875 277.92236328 C292.95561666 276.72484736 291.40186461 275.52427549 289.84960938 274.32177734 C287.12568862 272.2125027 284.39612034 270.11073503 281.66503906 268.01074219 C280.38342896 267.01868774 280.38342896 267.01868774 279.07592773 266.0065918 C273.04314215 261.39138075 266.80232132 257.26696454 260.35253906 253.26074219 C259.08399846 252.44684531 257.81686722 251.63074354 256.55175781 250.81152344 C229.70207624 233.61472569 200.29148499 218.284919 170.35253906 207.26074219 C166.57953822 205.86246453 162.81935451 204.45026367 159.09082031 202.93652344 C139.27381017 195.05039283 118.19793966 189.98321427 97.30615234 185.84619141 C95.28196623 185.4449682 93.25956303 185.03467423 91.23876953 184.61669922 C63.10994593 178.83633852 34.95577527 176.99019833 6.29003906 177.01074219 C4.93410645 177.01163345 4.93410645 177.01163345 3.55078125 177.01254272 C-15.78752407 177.06130328 -34.89838333 177.99179416 -54.08496094 180.44824219 Z " fill="#000000" transform="translate(635.6474609375,-0.2607421875)"/>
<path d="M0 0 C216.48 0 432.96 0 656 0 C648.35819401 53.49264191 627.3548257 100.92340936 592.42529297 142.29833984 C591.08587607 143.89747239 589.77374466 145.51414541 588.47265625 147.14453125 C584.58809521 151.99857248 580.62947929 156.57380521 576.1171875 160.85546875 C574.23556912 162.76138847 572.50766464 164.71795007 570.765625 166.75 C567.03858811 171.03980461 563.03212089 174.94308069 558.875 178.8125 C558.12855225 179.50972168 557.38210449 180.20694336 556.61303711 180.92529297 C536.85715453 199.26656724 515.56666743 215.17988542 492.4375 229 C491.49680664 229.56468994 490.55611328 230.12937988 489.58691406 230.71118164 C485.15156729 233.32637757 481.01840464 235.66398545 476 237 C476 237.66 476 238.32 476 239 C464.71220714 243.98853931 453.24107593 248.46944437 441.73608398 252.92895508 C438.24031072 254.29738171 434.7616875 255.70670712 431.28637695 257.1262207 C428.06186852 258.3585235 424.77569736 259.32055975 421.4609375 260.27734375 C417.6043673 261.40982865 413.80549912 262.70815367 410 264 C407.24430403 264.91856532 405.35803551 265.15422272 402.5 265.3125 C396.4569382 265.80613614 390.66750808 267.04680853 384.78125 268.45239258 C366.72325642 272.55808241 348.42071611 272.28614113 330.01409912 272.19561768 C327.24714253 272.18480131 324.48023471 272.18519767 321.71326065 272.18561459 C284.1591899 272.18437959 284.1591899 272.18437959 270.875 269.5625 C270.19953125 269.44068359 269.5240625 269.31886719 268.828125 269.19335938 C264.46335814 268.38023196 260.25625074 267.25263076 256 266 C254.22761648 265.51694935 252.45407352 265.03814222 250.6796875 264.5625 C249.73222656 264.30726563 248.78476562 264.05203125 247.80859375 263.7890625 C245.84557819 263.26106098 243.88203069 262.73503329 241.91796875 262.2109375 C240.97308594 261.95570313 240.02820313 261.70046875 239.0546875 261.4375 C238.20374512 261.20933594 237.35280273 260.98117187 236.47607422 260.74609375 C233.91290128 259.97375531 231.48307876 258.99623002 229 258 C226.37696925 257.49923958 223.75398473 257.12555409 221.109375 256.7578125 C216.80799837 255.70948704 213.00229803 253.86494945 209 252 C207.45442534 251.30698845 205.9075547 250.61685971 204.359375 249.9296875 C202.0387449 248.89523713 199.71813417 247.86076095 197.3984375 246.82421875 C193.62356655 245.14291957 189.83983316 243.52816295 186 242 C184.05795974 241.13512377 182.12046548 240.25997215 180.1875 239.375 C179.21167969 238.92898438 178.23585938 238.48296875 177.23046875 238.0234375 C176.49441406 237.68570313 175.75835937 237.34796875 175 237 C175 236.34 175 235.68 175 235 C174.03707031 234.77957031 173.07414063 234.55914063 172.08203125 234.33203125 C167.16298317 232.91689502 163.02804536 230.34540059 158.6875 227.6875 C157.38123657 226.89388062 157.38123657 226.89388062 156.04858398 226.08422852 C142.81393775 217.92683681 130.45381855 208.7470259 118.77148438 198.50048828 C117.457482 197.38749785 116.11552128 196.30733827 114.75976562 195.24560547 C106.44226231 188.68565122 99.02622992 181.33048507 91.56542969 173.82617188 C89.37915124 171.6291716 87.18238062 169.44307322 84.984375 167.2578125 C77.52893621 159.80965343 70.47975655 152.32193527 64 144 C63.02471784 142.82510229 62.04484991 141.6539822 61.05859375 140.48828125 C28.23545808 101.01563102 4.67590492 51.43495408 0 0 Z " fill="#000000" transform="translate(313,700)"/>
<path d="M0 0 C0.93280792 0.00027191 1.86561584 0.00054382 2.82669067 0.00082397 C16.49905863 0.0191663 29.9992024 0.31801183 43.5625 2.1875 C44.69461914 2.33227783 44.69461914 2.33227783 45.84960938 2.47998047 C73.00319224 6.00439052 98.86128932 13.30596361 124.27441406 23.29003906 C126.14514722 24.02380081 128.021082 24.74428892 129.8984375 25.4609375 C139.49495077 29.25115703 148.51032986 34.2676409 157.5625 39.1875 C158.30709473 39.59081543 159.05168945 39.99413086 159.81884766 40.40966797 C168.08829956 44.9082647 175.96579356 49.60949876 183.5625 55.1875 C184.89846809 56.13330898 186.23583973 57.07713698 187.57421875 58.01953125 C201.97574161 68.21050609 215.59597487 79.22000088 228.5625 91.1875 C229.54089844 92.06277344 230.51929688 92.93804687 231.52734375 93.83984375 C278.29683795 135.889283 314.1294841 192.04274863 326.9375 253.9375 C327.10531982 254.73462402 327.27313965 255.53174805 327.44604492 256.35302734 C327.59533447 257.11824707 327.74462402 257.8834668 327.8984375 258.671875 C328.09252197 259.65752441 328.09252197 259.65752441 328.29052734 260.66308594 C328.70212907 264.4835185 328.5625 268.34495905 328.5625 272.1875 C112.4125 272.1875 -103.7375 272.1875 -326.4375 272.1875 C-320.34075024 217.31675218 -295.61987306 169.11717748 -260.4375 127.1875 C-259.6640625 126.2284375 -258.890625 125.269375 -258.09375 124.28125 C-251.18276195 115.83448682 -243.56768408 108.10189013 -235.875 100.375 C-235.34447021 99.83929382 -234.81394043 99.30358765 -234.26733398 98.75164795 C-228.04960932 92.48617953 -221.74215214 86.58515869 -214.81542969 81.10009766 C-212.54080905 79.27059272 -210.38944978 77.35964981 -208.25 75.375 C-151.86178398 24.88555126 -74.78081833 -0.081771 0 0 Z " fill="#000000" transform="translate(639.4375,306.8125)"/>
</svg>
